<?xml version="1.0" encoding="UTF-8" standalone="no"?>
<!-- Created with Inkscape (http://www.inkscape.org/) -->

<svg
   xmlns:dc="http://purl.org/dc/elements/1.1/"
   xmlns:cc="http://creativecommons.org/ns#"
   xmlns:rdf="http://www.w3.org/1999/02/22-rdf-syntax-ns#"
   xmlns:svg="http://www.w3.org/2000/svg"
   xmlns="http://www.w3.org/2000/svg"
   xmlns:sodipodi="http://sodipodi.sourceforge.net/DTD/sodipodi-0.dtd"
   xmlns:inkscape="http://www.inkscape.org/namespaces/inkscape"
   version="1.1"
   id="svg2"
   xml:space="preserve"
   width="7466.6665"
   height="6017.3735"
   viewBox="0 0 7466.6665 6017.3735"
   sodipodi:docname="7793.svg"
   inkscape:version="0.92.2 2405546, 2018-03-11"><metadata
     id="metadata8"><rdf:RDF><cc:Work
         rdf:about=""><dc:format>image/svg+xml</dc:format><dc:type
           rdf:resource="http://purl.org/dc/dcmitype/StillImage" /><dc:title></dc:title></cc:Work></rdf:RDF></metadata><defs
     id="defs6" /><sodipodi:namedview
     pagecolor="#ffffff"
     bordercolor="#666666"
     borderopacity="1"
     objecttolerance="10"
     gridtolerance="10"
     guidetolerance="10"
     inkscape:pageopacity="0"
     inkscape:pageshadow="2"
     inkscape:window-width="1920"
     inkscape:window-height="1025"
     id="namedview4"
     showgrid="false"
     inkscape:zoom="0.039219769"
     inkscape:cx="3733.3333"
     inkscape:cy="-19.327286"
     inkscape:window-x="0"
     inkscape:window-y="26"
     inkscape:window-maximized="1"
     inkscape:current-layer="g12" /><g
     id="g10"
     inkscape:groupmode="layer"
     inkscape:label="ink_ext_XXXXXX"
     transform="matrix(1.3333333,0,0,-1.3333333,0,6017.3733)"><g
       id="g12"
       transform="scale(0.1)"><g
         id="g7246"
         transform="matrix(0.49589784,0,0,0.49589784,-27738.643,27398.973)"><g
           id="g7124"
           transform="matrix(14.347602,0,0,16.578721,-69440.431,-240134.81)"
           style="fill:#f05b2f;fill-opacity:1"><path
             d="m 11787.9,13452.1 c -114.1,168.8 -84.6,479.6 -55.6,676.7 34.9,237.2 206.4,409 318.3,613.8 346.6,635.2 43,897.2 82.1,1213.6 136.4,-221.6 221.2,-274.2 339.7,-407.3 168.9,-189.9 154,-402.2 99.5,-636.2 14.3,208.7 279.9,460.5 258.3,675.5 13.2,-106.2 112.4,-338 110.5,-456.7 243,508.3 442,66.5 693.6,287.3 387.9,340.3 125.7,596.6 133.7,881.2 327.6,-770.7 750.4,-593.7 928.8,-1425.6 71.6,-334.4 -66.9,-619.5 -22.7,-944.5 14.2,-104.1 101.8,-279.9 8.7,-370 -128.3,-124.5 -546.9,128.9 -672,174.1 -203.7,73.7 -376.5,211.4 -586.5,263.1 -156,38.4 -335.2,72.4 -496.4,85.9 -277.9,23.1 -514.1,-46.7 -614.7,-309.7 -74.1,-193.8 -191,-233.5 -359.6,-218.8 -41.9,3.6 -73.2,19.2 -107.6,-8.3 -45.5,-36.2 14.4,-126.1 -80.3,-116.3 l 22.2,22.2"
             style="fill:#f05b2f;fill-opacity:1;fill-rule:nonzero;stroke:none"
             id="path7122"
             inkscape:connector-curvature="0" /></g><g
           id="g7120"
           transform="matrix(99.050541,0,0,99.050541,-1512766.2,-85581.438)"><path
             d="m 16300,572.766 c 0,-17.887 -14.5,-32.447 -32.4,-32.447 h -192.1 c -17.9,0 -32.4,14.56 -32.4,32.447 v 51.089 c 0,17.926 14.5,32.447 32.4,32.447 h 192.1 c 17.9,0 32.4,-14.521 32.4,-32.447 v -51.089"
             style="fill:#924120;fill-opacity:1;fill-rule:nonzero;stroke:none"
             id="path7118"
             inkscape:connector-curvature="0" /></g><g
           transform="matrix(34.360078,0,0,34.360078,-460797.64,-56511.066)"
           id="g146"><path
             inkscape:connector-curvature="0"
             id="path148"
             style="fill:#924120;fill-opacity:1;fill-rule:nonzero;stroke:none"
             d="m 16300,572.766 c 0,-17.887 -14.5,-32.447 -32.4,-32.447 h -192.1 c -17.9,0 -32.4,14.56 -32.4,32.447 v 51.089 c 0,17.926 14.5,32.447 32.4,32.447 h 192.1 c 17.9,0 32.4,-14.521 32.4,-32.447 v -51.089" /></g><g
           style="fill:#ec1e24;fill-opacity:1"
           transform="matrix(16.674085,0,0,16.674085,-100116.18,-240955.13)"
           id="g1342"><path
             inkscape:connector-curvature="0"
             id="path1344"
             style="fill:#ec1e24;fill-opacity:1;fill-rule:nonzero;stroke:none"
             d="m 11787.9,13452.1 c -114.1,168.8 -84.6,479.6 -55.6,676.7 34.9,237.2 206.4,409 318.3,613.8 346.6,635.2 43,897.2 82.1,1213.6 136.4,-221.6 221.2,-274.2 339.7,-407.3 168.9,-189.9 154,-402.2 99.5,-636.2 14.3,208.7 279.9,460.5 258.3,675.5 13.2,-106.2 112.4,-338 110.5,-456.7 243,508.3 442,66.5 693.6,287.3 387.9,340.3 125.7,596.6 133.7,881.2 327.6,-770.7 750.4,-593.7 928.8,-1425.6 71.6,-334.4 -66.9,-619.5 -22.7,-944.5 14.2,-104.1 101.8,-279.9 8.7,-370 -128.3,-124.5 -546.9,128.9 -672,174.1 -203.7,73.7 -376.5,211.4 -586.5,263.1 -156,38.4 -335.2,72.4 -496.4,85.9 -277.9,23.1 -514.1,-46.7 -614.7,-309.7 -74.1,-193.8 -191,-233.5 -359.6,-218.8 -41.9,3.6 -73.2,19.2 -107.6,-8.3 -45.5,-36.2 14.4,-126.1 -80.3,-116.3 l 22.2,22.2" /></g><g
           transform="matrix(23.907696,0,0,23.907696,-235177.55,-384202.55)"
           id="g1838"><path
             inkscape:connector-curvature="0"
             id="path1840"
             style="fill:#a9d8e9;fill-opacity:1;fill-rule:nonzero;stroke:none"
             d="m 15953.8,15177.5 c 0,-620 -502.6,-1122.6 -1122.6,-1122.6 -619.9,0 -1122.5,502.6 -1122.5,1122.6 0,619.9 502.6,1122.5 1122.5,1122.5 620,0 1122.6,-502.6 1122.6,-1122.5" /></g><g
           transform="matrix(23.570462,0,0,23.570462,-235177.55,-384202.55)"
           id="g1842"><path
             inkscape:connector-curvature="0"
             id="path1844"
             style="fill:#3bb6d2;fill-opacity:1;fill-rule:nonzero;stroke:none"
             d="m 15946.5,15390.5 c -2.3,-498.8 -408.5,-901.3 -907.2,-899 -498.8,2.3 -901.2,408.5 -898.9,907.3 2.2,498.7 408.4,901.2 907.2,898.9 498.7,-2.3 901.2,-408.5 898.9,-907.2" /></g><g
           transform="matrix(12.424331,-9.2955386,9.2955386,12.424331,-185377,-83598.703)"
           id="g1846"><path
             inkscape:connector-curvature="0"
             id="path1848"
             style="fill:#ffffff;fill-opacity:1;fill-rule:nonzero;stroke:none"
             d="m 14666.8,16237.9 -62.2,-62.2 -62.1,62.2 62.1,62.1 62.2,-62.1" /></g><g
           transform="matrix(12.275718,-9.1843503,9.1843503,12.275718,-185377,-83598.703)"
           id="g1850"><path
             inkscape:connector-curvature="0"
             id="path1852"
             style="fill:#ffffff;fill-opacity:1;fill-rule:nonzero;stroke:none"
             d="m 14886.8,16209.3 -90.7,-90.6 -90.6,90.6 90.6,90.7 90.7,-90.7" /></g><g
           transform="matrix(22.098814,0,0,22.098814,-235177.55,-384202.55)"
           id="g1854"><path
             inkscape:connector-curvature="0"
             id="path1856"
             style="fill:#713717;fill-opacity:1;fill-rule:nonzero;stroke:none"
             d="m 16246.5,15679.6 c 1.5,14.4 14.3,24.8 28.7,23.3 14.3,-1.5 24.8,-14.3 23.3,-28.7 -1.5,-14.4 -14.4,-24.8 -28.7,-23.3 -14.4,1.5 -24.8,14.4 -23.3,28.7 v 0" /></g><g
           transform="matrix(23.852873,0,0,23.852873,-235177.55,-384202.55)"
           id="g1858"><path
             inkscape:connector-curvature="0"
             id="path1860"
             style="fill:#ca2027;fill-opacity:1;fill-rule:nonzero;stroke:none"
             d="m 15070.1,15860.8 c -228,-376.5 364.7,-491.5 472.3,-148 107.7,343.5 -444.8,587.2 -472.3,148" /></g><g
           transform="matrix(23.648326,0,0,23.648326,-235177.55,-384202.55)"
           id="g1862"><path
             inkscape:connector-curvature="0"
             id="path1864"
             style="fill:#ef5123;fill-opacity:1;fill-rule:nonzero;stroke:none"
             d="m 15264,15978 c -167,-275.9 267.3,-360.1 346.1,-108.3 78.9,251.7 -325.9,430.3 -346.1,108.3" /></g><g
           transform="matrix(23.097539,0,0,23.097539,-235177.55,-384202.55)"
           id="g1866"><path
             inkscape:connector-curvature="0"
             id="path1868"
             style="fill:#f7e8c4;fill-opacity:1;fill-rule:nonzero;stroke:none"
             d="m 15960.1,16255 c -3.9,-12.6 -27.6,-16.5 -52.8,-8.7 -25.2,8 -42.4,24.7 -38.4,37.3 3.9,12.6 27.6,16.4 52.8,8.5 25.2,-7.8 42.4,-24.5 38.4,-37.1" /></g><g
           transform="matrix(23.071408,0,0,23.071408,-235177.55,-384202.55)"
           id="g1870"><path
             inkscape:connector-curvature="0"
             id="path1872"
             style="fill:#f7e8c4;fill-opacity:1;fill-rule:nonzero;stroke:none"
             d="m 15688.1,16292.7 c 11.1,-7.5 8.1,-31.2 -6.5,-53.2 -14.6,-22.1 -35.5,-33.9 -46.5,-26.6 -11.1,7.4 -8.1,31.2 6.5,53.3 14.6,21.9 35.5,33.8 46.5,26.5" /></g><g
           transform="matrix(23.010759,0,0,23.010759,-235177.55,-384202.55)"
           id="g1874"><path
             inkscape:connector-curvature="0"
             id="path1876"
             style="fill:#f7e8c4;fill-opacity:1;fill-rule:nonzero;stroke:none"
             d="m 15814.2,16295.7 c 12.5,-4.3 15.8,-28.1 7.3,-53.2 -8.6,-25 -25.7,-41.9 -38.2,-37.7 -12.7,4.4 -16,28.2 -7.4,53.3 8.5,25.1 25.7,41.9 38.3,37.6" /></g><g
           transform="matrix(23.014202,0,0,23.014202,-235177.55,-384202.55)"
           id="g1878"><path
             inkscape:connector-curvature="0"
             id="path1880"
             style="fill:#f7e8c4;fill-opacity:1;fill-rule:nonzero;stroke:none"
             d="m 15884.2,16296.2 c 12.7,3.8 29,-13.9 36.4,-39.3 7.3,-25.5 3,-49.1 -9.9,-52.8 -12.7,-3.8 -29.1,13.9 -36.5,39.4 -7.3,25.5 -2.9,49.2 10,52.7" /></g><g
           transform="matrix(23.38101,0,0,23.38101,-235177.55,-384202.55)"
           id="g1882"><path
             inkscape:connector-curvature="0"
             id="path1884"
             style="fill:#f7e8c4;fill-opacity:1;fill-rule:nonzero;stroke:none"
             d="m 15522,16205.3 c 13.1,-0.3 24.1,20.6 24.6,46.7 0.6,26.1 -9.7,47.4 -22.7,47.7 -13.1,0.3 -24.2,-20.7 -24.7,-46.7 -0.5,-26.1 9.7,-47.4 22.8,-47.7" /></g><g
           transform="matrix(23.358675,0,0,23.358675,-235177.55,-384202.55)"
           id="g1886"><path
             inkscape:connector-curvature="0"
             id="path1888"
             style="fill:#f7e8c4;fill-opacity:1;fill-rule:nonzero;stroke:none"
             d="m 15627.7,16205.5 c 12.6,-3.7 28.8,13.8 35.9,38.9 7.1,25.1 2.8,48.4 -9.8,52 -12.6,3.6 -28.7,-13.8 -35.9,-38.9 -7.2,-25.1 -2.8,-48.5 9.8,-52" /></g><g
           transform="matrix(23.261477,0,0,23.261477,-235177.55,-384202.55)"
           id="g1890"><path
             inkscape:connector-curvature="0"
             id="path1892"
             style="fill:#f7e8c4;fill-opacity:1;fill-rule:nonzero;stroke:none"
             d="m 15750,16229.8 c 8.3,-10.1 31.6,-5.1 52,11.5 20.3,16.5 30,38.2 21.7,48.5 -8.3,10.2 -31.5,5.1 -51.8,-11.4 -20.4,-16.6 -30.1,-38.3 -21.9,-48.6" /></g><g
           transform="matrix(23.160749,0,0,23.160749,-235177.55,-384202.55)"
           id="g1894"><path
             inkscape:connector-curvature="0"
             id="path1896"
             style="fill:#e22226;fill-opacity:1;fill-rule:nonzero;stroke:none"
             d="m 15732.3,16123.9 c -451.8,37.5 -285.8,-561.7 80.2,-503.4 366.2,58.4 337.4,679.5 -80.2,503.4" /></g><g
           transform="matrix(22.996899,0,0,22.996899,-235177.55,-384202.55)"
           id="g1898"><path
             inkscape:connector-curvature="0"
             id="path1900"
             style="fill:#ef5123;fill-opacity:1;fill-rule:nonzero;stroke:none"
             d="m 15855,16171.1 c -330.5,27.4 -209,-411.1 58.9,-368.2 267.9,42.7 246.9,497.1 -58.9,368.2" /></g><g
           transform="matrix(22.475775,0,0,22.475775,-235177.55,-384202.55)"
           id="g1902"><path
             inkscape:connector-curvature="0"
             id="path1904"
             style="fill:#f7e8c4;fill-opacity:1;fill-rule:nonzero;stroke:none"
             d="m 16279.1,16192.8 c -13.4,-2.1 -27.8,17.9 -32.1,44.7 -4.3,26.8 3.2,50.3 16.7,52.4 13.3,2.2 27.7,-17.9 32,-44.7 4.3,-26.8 -3.2,-50.2 -16.6,-52.4" /></g><g
           transform="matrix(22.754655,0,0,22.754655,-235177.55,-384202.55)"
           id="g1906"><path
             inkscape:connector-curvature="0"
             id="path1908"
             style="fill:#f7e8c4;fill-opacity:1;fill-rule:nonzero;stroke:none"
             d="m 15966,16266.4 c -1.7,-13.4 -24.6,-21.4 -51.2,-18.1 -26.6,3.3 -46.8,16.9 -45.1,30.2 1.6,13.4 24.7,21.5 51.3,18.2 26.5,-3.4 46.7,-17 45,-30.3" /></g><g
           transform="matrix(22.605371,0,0,22.605371,-235177.55,-384202.55)"
           id="g1910"><path
             inkscape:connector-curvature="0"
             id="path1912"
             style="fill:#f7e8c4;fill-opacity:1;fill-rule:nonzero;stroke:none"
             d="m 16073.4,16278.6 c 1.8,-13.4 -18.4,-27.2 -45.1,-30.8 -26.7,-3.6 -49.8,4.4 -51.7,17.7 -1.8,13.5 18.4,27.3 45.2,30.9 26.7,3.6 49.9,-4.4 51.6,-17.8" /></g><g
           transform="matrix(22.500052,0,0,22.500052,-235177.55,-384202.55)"
           id="g1914"><path
             inkscape:connector-curvature="0"
             id="path1916"
             style="fill:#f7e8c4;fill-opacity:1;fill-rule:nonzero;stroke:none"
             d="m 16184.4,16289.8 c 9.3,-9.9 0.5,-33 -19.4,-51.3 -20,-18.3 -43.6,-25.1 -52.9,-15 -9.2,10 -0.5,33 19.5,51.4 19.9,18.3 43.7,25.1 52.8,14.9" /></g><g
           transform="matrix(22.812214,0,0,22.812214,-235177.55,-384202.55)"
           id="g1918"><path
             inkscape:connector-curvature="0"
             id="path1920"
             style="fill:#f7e8c4;fill-opacity:1;fill-rule:nonzero;stroke:none"
             d="m 16062.6,16245.8 c 5.7,-12.1 29.9,-12.6 54.1,-1.2 24.2,11.4 39.1,30.5 33.3,42.6 -5.6,12.1 -30,12.8 -54.1,1.4 -24.1,-11.5 -39.1,-30.6 -33.3,-42.8" /></g><g
           transform="matrix(22.662666,0,0,22.662666,-235177.55,-384202.55)"
           id="g1922"><path
             inkscape:connector-curvature="0"
             id="path1924"
             style="fill:#f7e8c4;fill-opacity:1;fill-rule:nonzero;stroke:none"
             d="m 16196.1,16262.2 c 2.4,-13.3 25.9,-20.2 52.3,-15.3 26.6,4.9 46.1,19.6 43.6,32.9 -2.5,13.3 -25.9,20.2 -52.4,15.2 -26.4,-4.8 -46,-19.6 -43.5,-32.8" /></g><g
           transform="matrix(22.630355,0,0,22.630355,-235177.55,-384202.55)"
           id="g1926"><path
             inkscape:connector-curvature="0"
             id="path1928"
             style="fill:#f7e8c4;fill-opacity:1;fill-rule:nonzero;stroke:none"
             d="m 16205.5,16213.1 c -5.5,-12.3 9.8,-31.4 34.3,-42.6 24.5,-11.1 49,-10.2 54.6,2.2 5.6,12.3 -9.7,31.3 -34.2,42.5 -24.6,11.2 -49,10.1 -54.7,-2.1" /></g><g
           transform="matrix(23.176198,0,0,23.176198,-235177.55,-384202.55)"
           id="g1930"><path
             inkscape:connector-curvature="0"
             id="path1932"
             style="fill:#ca2027;fill-opacity:1;fill-rule:nonzero;stroke:none"
             d="m 15853.9,15643.5 c -451.5,37.4 -285.6,-561.5 80.2,-503.1 365.9,58.3 337.1,679 -80.2,503.1" /></g><g
           transform="matrix(23.01791,0,0,23.01791,-235177.55,-384202.55)"
           id="g1934"><path
             inkscape:connector-curvature="0"
             id="path1936"
             style="fill:#ef5123;fill-opacity:1;fill-rule:nonzero;stroke:none"
             d="m 15973.5,15683.4 c -330.1,27.3 -208.8,-410.7 58.9,-367.9 267.6,42.6 246.7,496.7 -58.9,367.9" /></g><g
           transform="matrix(22.663637,0,0,22.663637,-235177.55,-384202.55)"
           id="g1938"><path
             inkscape:connector-curvature="0"
             id="path1940"
             style="fill:#f7e8c4;fill-opacity:1;fill-rule:nonzero;stroke:none"
             d="m 16279.3,15578.2 c -13.4,-2 -27.6,17.8 -31.9,44.3 -4.2,26.7 3.2,49.9 16.6,52 13.2,2.2 27.4,-17.8 31.7,-44.3 4.3,-26.6 -3.1,-49.8 -16.4,-52" /></g><g
           transform="matrix(22.4786,0,0,22.4786,-235177.55,-384202.55)"
           id="g1942"><path
             inkscape:connector-curvature="0"
             id="path1944"
             style="fill:#f7e8c4;fill-opacity:1;fill-rule:nonzero;stroke:none"
             d="m 16298.3,15981.9 c -1.8,-13.6 -24.9,-21.8 -51.8,-18.4 -27,3.4 -47.4,17.1 -45.7,30.6 1.6,13.6 24.9,21.7 51.9,18.4 26.8,-3.4 47.3,-17.2 45.6,-30.6" /></g><g
           transform="matrix(22.481425,0,0,22.481425,-235177.55,-384202.55)"
           id="g1946"><path
             inkscape:connector-curvature="0"
             id="path1948"
             style="fill:#f7e8c4;fill-opacity:1;fill-rule:nonzero;stroke:none"
             d="m 16298.3,15884.1 c 1.7,-13.5 -18.6,-27.3 -45.4,-31 -26.9,-3.6 -50.1,4.4 -52,17.8 -1.8,13.6 18.5,27.5 45.4,31.1 26.9,3.6 50.2,-4.4 52,-17.9" /></g><g
           transform="matrix(22.541191,0,0,22.541191,-235177.55,-384202.55)"
           id="g1950"><path
             inkscape:connector-curvature="0"
             id="path1952"
             style="fill:#f7e8c4;fill-opacity:1;fill-rule:nonzero;stroke:none"
             d="m 16290.7,15777.2 c 9.3,-10 0.6,-33 -19.3,-51.3 -20,-18.2 -43.6,-25 -52.8,-14.9 -9.2,9.9 -0.5,32.9 19.4,51.2 19.9,18.4 43.6,25.1 52.7,15" /></g><g
           transform="matrix(22.798089,0,0,22.798089,-235177.55,-384202.55)"
           id="g1954"><path
             inkscape:connector-curvature="0"
             id="path1956"
             style="fill:#f7e8c4;fill-opacity:1;fill-rule:nonzero;stroke:none"
             d="m 16206.8,15778.3 c 5.7,-12.2 30,-12.7 54.1,-1.2 24.2,11.4 39.1,30.5 33.4,42.7 -5.6,12.1 -30.1,12.7 -54.1,1.3 -24.2,-11.5 -39.2,-30.6 -33.4,-42.8" /></g><g
           transform="matrix(22.84276,0,0,22.84276,-235177.55,-384202.55)"
           id="g1958"><path
             inkscape:connector-curvature="0"
             id="path1960"
             style="fill:#f7e8c4;fill-opacity:1;fill-rule:nonzero;stroke:none"
             d="m 16202.4,15657.4 c 2.4,-13.2 25.8,-20.1 52,-15.2 26.3,4.9 45.6,19.5 43.2,32.7 -2.5,13.2 -25.7,20 -52,15.1 -26.3,-4.8 -45.7,-19.5 -43.2,-32.6" /></g><g
           transform="matrix(22.818217,0,0,22.818217,-235177.55,-384202.55)"
           id="g1962"><path
             inkscape:connector-curvature="0"
             id="path1964"
             style="fill:#f7e8c4;fill-opacity:1;fill-rule:nonzero;stroke:none"
             d="m 16206.3,15602.5 c -5.5,-12.2 9.6,-31.2 34,-42.3 24.3,-11 48.5,-10 54.1,2.2 5.6,12.2 -9.6,31.1 -33.9,42.2 -24.5,11 -48.6,10 -54.2,-2.1" /></g><g
           transform="matrix(22.363304,0,0,22.363304,-235177.55,-384202.55)"
           id="g1966"><path
             inkscape:connector-curvature="0"
             id="path1968"
             style="fill:#df7026;fill-opacity:1;fill-rule:nonzero;stroke:none"
             d="m 16300,15588.6 c 0,-173.8 -144.2,-314.8 -322,-314.8 -177.8,0 -322,141 -322,314.8 0,174 144.2,315 322,315 177.8,0 322,-141 322,-315" /></g><g
           transform="matrix(22.22073,0,0,22.22073,-235177.55,-384202.55)"
           id="g1970"><path
             inkscape:connector-curvature="0"
             id="path1972"
             style="fill:#f6932f;fill-opacity:1;fill-rule:nonzero;stroke:none"
             d="m 16300,15688.7 c 0,-118.5 -98.3,-214.6 -219.4,-214.6 -121.3,0 -219.5,96.1 -219.5,214.6 0,118.5 98.2,214.6 219.5,214.6 121.1,0 219.4,-96.1 219.4,-214.6" /></g><g
           transform="matrix(22.878072,0,0,22.878072,-235177.55,-384202.55)"
           id="g1974"><path
             inkscape:connector-curvature="0"
             id="path1976"
             style="fill:#d97f27;fill-opacity:1;fill-rule:nonzero;stroke:none"
             d="m 16300,15476 c 0,-170 -140.9,-307.8 -314.8,-307.8 -173.8,0 -314.7,137.8 -314.7,307.8 0,170 140.9,307.8 314.7,307.8 173.9,0 314.8,-137.8 314.8,-307.8" /></g><g
           transform="matrix(22.73541,0,0,22.73541,-235177.55,-384202.55)"
           id="g1978"><path
             inkscape:connector-curvature="0"
             id="path1980"
             style="fill:#f6932f;fill-opacity:1;fill-rule:nonzero;stroke:none"
             d="m 16300,15573.1 c 0,-115.8 -96,-209.7 -214.5,-209.7 -118.4,0 -214.5,93.9 -214.5,209.7 0,115.8 96.1,209.7 214.5,209.7 118.5,0 214.5,-93.9 214.5,-209.7" /></g><g
           transform="matrix(22.577563,0,0,22.577563,-235177.55,-384202.55)"
           id="g1982"><path
             inkscape:connector-curvature="0"
             id="path1984"
             style="fill:#df7026;fill-opacity:1;fill-rule:nonzero;stroke:none"
             d="m 14920.3,16300 c 0,0 -260.6,-435.3 0,-984.1 l 317.7,62.2 c 0,0 -16.3,676.2 40.8,847.2 l -358.5,74.7" /></g><g
           transform="matrix(23.634642,0,0,23.634642,-235177.55,-384202.55)"
           id="g1986"><path
             inkscape:connector-curvature="0"
             id="path1988"
             style="fill:#3d3f3f;fill-opacity:1;fill-rule:nonzero;stroke:none"
             d="m 16122.6,15776.1 -168.4,297.1 c -12.6,22.3 -46.1,4.1 -34.6,-18.6 l 113,-222.5 c 9.4,-18.5 0.5,-41 -19.1,-48 -0.2,0 -0.4,-0.1 -0.7,-0.2 -18.3,-6.5 -38.4,3.3 -44.4,21.8 l -78.5,242.6 c -8.2,25.4 -53.1,11 -44.7,-14.5 l 78.4,-242.6 c 6,-18.5 -4.6,-38.3 -23.1,-43.7 -0.4,-0.1 -0.6,-0.2 -0.8,-0.2 -20,-5.8 -40.4,7.2 -43.6,27.7 l -38.7,246.5 c -4,25.1 -41.9,20.3 -39.1,-5.2 l 37.7,-339.4 c 0,0 -11.9,-93.7 159.6,-127.8 l 150.6,-585.5 c 7.4,-28.9 29.5,-52 58.2,-60.6 34.2,-10.4 71.3,1.6 93.1,30.1 18.1,23.8 22.5,55.4 11.6,83.2 l -220.9,562.8 c 118.9,128 54.4,197 54.4,197 v 0" /></g><g
           transform="matrix(23.893571,0,0,23.893571,-235177.55,-384202.55)"
           id="g1990"><path
             inkscape:connector-curvature="0"
             id="path1992"
             style="fill:#7dc142;fill-opacity:1;fill-rule:nonzero;stroke:none"
             d="m 15084.8,16295.9 c -23.4,-3.5 -41.8,-28.7 -41.8,-28.7 -16.3,25.5 -38.7,32.8 -38.7,32.8 -24,-11.7 -37.7,-44.4 -37.7,-44.4 -29.9,19 -49.2,4.5 -49.2,4.5 38.9,-39.9 60.8,-107.6 63.3,-138.3 l -106.1,-125.2 -23.2,38.7 c 14.4,34.6 60.8,97.8 115.9,126.6 0,0 -15.5,22.2 -53.9,12.3 0,0 -3.3,39.5 -24.7,60.3 0,0 -26.3,-0.1 -52.4,-21.5 0,0 -10.9,33.2 -34.5,45 0,0 -22.5,-17.3 -34.7,-46.4 -29.2,12.2 -57.3,8.7 -57.3,8.7 -8.6,-25 6.9,-56.2 6.9,-56.2 -33.7,-3.1 -52.5,-21.5 -52.5,-21.5 -0.7,-29.8 24.6,-60.2 24.6,-60.2 -34.3,-19.9 -29.8,-46.6 -29.8,-46.6 59.7,18.1 137.5,5.2 171.3,-9 l 29,-48.2 -94.3,-111.1 17,-14.5 94.3,111.1 52.3,-20.7 c 18.7,-29.8 45,-104.3 36.7,-167.5 0,0 27,-0.1 41.2,37 0,0 34,-20.1 63.4,-14.5 0,0 15.1,21.5 12.6,55.2 0,0 33.4,-10.2 56.6,2.4 0,0 -1.1,28.2 -18,55.1 26.8,16.8 40.2,41.8 40.2,41.8 -15.5,21.4 -50,26.7 -50,26.7 16.9,29.3 12.7,55.2 12.7,55.2 -24,17.8 -63.5,14.6 -63.5,14.6 3.6,39.5 -20.9,51.2 -20.9,51.2 -18.4,-55.9 -71.3,-113.2 -106.1,-135 l -41.9,16.6 106.2,125.1 c 25.6,2.1 97.7,-5.7 146.7,-40.1 0,0 11.3,21.5 -12.3,47.9 0,0 30,18.9 37.6,44.4 0,0 -10.9,21 -38.6,32.9 0,0 21.8,22.2 21.4,45.9 0,0 -22.9,10.7 -51.1,8.4 -2.4,28.2 -16.7,49.2 -16.7,49.2" /></g><g
           transform="matrix(23.98556,0,0,23.98556,-235177.55,-384202.55)"
           id="g1994"><path
             inkscape:connector-curvature="0"
             id="path1996"
             style="fill:#6eb144;fill-opacity:1;fill-rule:nonzero;stroke:none"
             d="m 14694,16196 c -27.9,63.2 -90.5,104 -159.6,104 -69.1,0 -131.7,-40.8 -159.5,-104 l -146.2,-331.7 c -44.8,-101.8 -35.9,-218.8 23.9,-312.8 59.7,-93.8 157.1,-149 267.4,-151.5 9.5,-0.2 19.3,-0.2 28.9,0 110.2,2.5 207.7,57.7 267.3,151.5 59.8,94 68.8,211 23.9,312.8 L 14694,16196" /></g><g
           transform="matrix(24.067926,0,0,24.067926,-235177.55,-384202.55)"
           id="g1998"><path
             inkscape:connector-curvature="0"
             id="path2000"
             style="fill:#487d3a;fill-opacity:1;fill-rule:nonzero;stroke:none"
             d="m 14765.5,15498.2 c -59.5,-93.4 -156.6,-148.4 -266.4,-150.9 -9.5,-0.2 -19.4,-0.2 -28.8,0 -109.9,2.5 -207,57.5 -266.4,150.9 -59.6,93.8 -68.6,210.3 -23.9,311.8 l 145.7,330.5 c 27.7,63 90.1,103.7 159,103.7 68.8,0 131.2,-40.7 159,-103.7 l 145.6,-330.5 c 44.7,-101.5 35.8,-218 -23.8,-311.8 z m 74.9,334.3 -145.7,330.5 c -36.7,83.2 -119.1,137 -210,137 -90.9,0 -173.4,-53.8 -210,-137 l -145.7,-330.5 c -52.2,-118.6 -41.9,-254.7 27.8,-364.2 68.6,-107.8 185.3,-173.9 312.3,-176.8 5.1,-0.1 10.3,-0.2 15.6,-0.2 5.2,0 10.4,0.1 15.6,0.2 127,2.9 243.7,69 312.2,176.8 69.7,109.5 80.1,245.6 27.9,364.2" /></g><g
           transform="matrix(23.509371,0,0,23.509371,-235177.55,-384202.55)"
           id="g2002"><path
             inkscape:connector-curvature="0"
             id="path2004"
             style="fill:#713717;fill-opacity:1;fill-rule:nonzero;stroke:none"
             d="m 14828.8,16300 v -435.2 c -120.2,0 -217.6,97.4 -217.6,217.6 0,120.2 97.4,217.6 217.6,217.6" /></g><g
           transform="matrix(23.509371,0,0,23.509371,-235177.55,-384202.55)"
           id="g2006"><path
             inkscape:connector-curvature="0"
             id="path2008"
             style="fill:#543211;fill-opacity:1;fill-rule:nonzero;stroke:none"
             d="m 15046.4,16082.4 c 0,-120.2 -97.4,-217.6 -217.6,-217.6 v 435.2 c 120.2,0 217.6,-97.4 217.6,-217.6" /></g><g
           transform="matrix(22.361715,0,0,22.361715,-235177.55,-384202.55)"
           id="g2010"><path
             inkscape:connector-curvature="0"
             id="path2012"
             style="fill:#a32f22;fill-opacity:1;fill-rule:nonzero;stroke:none"
             d="m 16300,15701.2 c 0,0 -379.4,24.7 -1071.2,-73.9 0,0 -35.8,173.2 62,388.8 l 117.5,-149 c 0,0 16.9,191.3 159.8,178.2 0,0 122,-79.4 319.5,-12.6 143.7,-82.7 295.1,-192.4 412.4,-331.5" /></g><g
           transform="matrix(22.361715,0,0,22.361715,-235177.55,-384202.55)"
           id="g2014"><path
             inkscape:connector-curvature="0"
             id="path2016"
             style="fill:#701a12;fill-opacity:1;fill-rule:nonzero;stroke:none"
             d="m 16300,15701.2 c 0,0 -379.4,24.7 -1071.2,-73.9 0,0 19.9,116.5 179.5,239.8 l 891.7,-165.9" /></g><g
           transform="matrix(22.26955,0,0,22.26955,-235177.55,-384202.55)"
           id="g2018"><path
             inkscape:connector-curvature="0"
             id="path2020"
             style="fill:#821a18;fill-opacity:1;fill-rule:nonzero;stroke:none"
             d="m 15953.3,16099 c -198.3,-67.1 -320.8,12.7 -320.8,12.7 -143.5,13.1 -160.4,-179 -160.4,-179 l -118,149.6 c 31.6,69.6 76.9,143.5 142,217.7 0,0 217.4,-63 457.2,-201" /></g><g
           transform="matrix(23.028062,0,0,23.028062,-235177.55,-384202.55)"
           id="g2022"><path
             inkscape:connector-curvature="0"
             id="path2024"
             style="fill:#f9f7f5;fill-opacity:1;fill-rule:nonzero;stroke:none"
             d="m 15734.3,15821.4 c -47,58.8 -113.9,111.5 -133.6,170.8 -23.6,71.2 25.3,124.5 3.8,195.8 -21.2,70.6 -85.4,112 -159.8,112 -103.8,0 -187.9,-85.7 -187.9,-191.3 0,-31.6 8.2,-61.9 21.2,-90.2 -69.3,-60.2 -119.3,-99.9 -105.7,-195.3 19.3,-134.6 86.3,-176 215,-190.2 96.1,-10.7 311.6,-113.5 375.7,3.7 40,73 13.8,131.4 -28.7,184.7" /></g><g
           transform="matrix(22.887342,0,0,22.887342,-235177.55,-384202.55)"
           id="g2026"><path
             inkscape:connector-curvature="0"
             id="path2028"
             style="fill:#7dc142;fill-opacity:1;fill-rule:nonzero;stroke:none"
             d="m 14806.4,16261.8 c -5.2,-19.3 6.1,-40.3 6.1,-40.3 -22.7,-6.2 -34.9,-21.8 -34.9,-21.8 0.2,-21.9 18.2,-41.2 18.2,-41.2 -22.8,-18.5 -19,-37.4 -19,-37.4 39.9,20.2 93.4,19.8 115.2,13.7 l 51.4,-115.8 -34,-8.1 c -19,20.3 -47.3,73.1 -49.2,123.8 0,0 -20.2,-6.3 -25.9,-39.1 0,0 -28.1,7.7 -49.2,-3.7 0,0 -8.5,-20.6 -2.3,-46.7 0,0 -26.2,0.1 -42,-15.4 0,0 4.6,-22.1 20.6,-39.2 -17.8,-19.8 -24.5,-42.7 -24.5,-42.7 14.3,-13.3 40.7,-9.2 40.7,-9.2 -8.8,-27.2 -2.2,-46.8 -2.2,-46.8 20.2,-8.3 49.2,3.7 49.2,3.7 2.5,-32.1 22.3,-35.5 22.3,-35.5 6.9,51.5 40.9,109.2 61.5,132.1 l 42.4,10.2 45.6,-102.9 15.5,9.6 -45.7,102.9 31.1,35.6 c 26.5,6.9 86.1,8.2 126.7,-14.8 0,0 8.8,21.2 -12.1,42 0,0 24.8,21.5 30.5,45.9 0,0 -9.9,17.5 -33.7,24.3 0,0 17.7,23.6 16.6,45.1 0,0 -19.7,6.4 -43.6,0.2 -2.8,25.4 -15.6,42.4 -15.6,42.4 -19.7,-6.7 -34.5,-32.4 -34.5,-32.4 -14.6,20.9 -33.7,24.3 -33.7,24.3 -19.9,-14.2 -30.5,-46 -30.5,-46 -25.9,13.1 -41.8,-3.1 -41.8,-3.1 32.3,-28.9 54.5,-85.3 58.2,-118.3 l -25,-28.6 -51.3,115.9 c 6.8,20.6 35.4,75.1 74.8,104.7 0,0 -11,14.4 -36.8,2.7 0,0 -3.2,28.5 -18.2,41.1 0,0 -17.9,-3.1 -35,-21.8 0,0 -8.2,22.9 -24.5,28.8 0,0 -14.8,-15.2 -22.4,-38 -20,5.5 -39,-0.2 -39,-0.2" /></g><g
           transform="matrix(22.736116,0,0,22.736116,-235177.55,-384202.55)"
           id="g2030"><path
             inkscape:connector-curvature="0"
             id="path2032"
             style="fill:#7dc142;fill-opacity:1;fill-rule:nonzero;stroke:none"
             d="m 16129.4,15748.5 c -17.5,-9.7 -24.9,-32.6 -24.9,-32.6 -20.3,12.2 -40.2,10.1 -40.2,10.1 -15.8,-15.4 -17.2,-41.9 -17.2,-41.9 -29.3,3.6 -40.4,-12.3 -40.4,-12.3 42.5,-14.9 79.6,-54 90.4,-74 l -48.1,-118.1 -29.7,19 c 1.6,27.9 20.1,85.3 55.5,122.1 0,0 -18.7,10.2 -46.4,-8.5 0,0 -14,25.7 -37,33.2 0,0 -20.9,-8.3 -35.5,-31 0,0 -18.3,19.1 -40.5,19.7 0,0 -12.8,-18.7 -14.1,-42.4 -26.7,-0.8 -48.1,-12 -48.1,-12 0.4,-19.6 21.8,-36 21.8,-36 -25.9,-12.6 -35.5,-31 -35.5,-31 8.1,-20.4 37,-33.1 37,-33.1 -21.5,-24.2 -10.2,-40.9 -10.2,-40.9 42.2,31 107.8,46.5 138.8,47.5 l 37,-23.6 -42.8,-104.9 17.8,-4.5 42.7,104.9 47.6,2.3 c 23.4,-14.4 65.9,-56.7 77.6,-102.2 0,0 21.6,8.5 22,38 0,0 32.9,-2.9 54.6,10 0,0 5.8,19.4 -5.9,41.4 0,0 29.5,3.6 44.3,19.4 0,0 -9.1,18.8 -30.2,31.7 16.4,19.8 19.8,41 19.8,41 -18.6,9.6 -47.5,2.4 -47.5,2.4 4.9,25.2 -5.9,41.5 -5.9,41.5 -24.3,4.5 -54.7,-10.1 -54.7,-10.1 -8.6,28 -31.5,28.3 -31.5,28.3 1.6,-43.7 -23.8,-99.1 -45.2,-124.8 l -38.1,-1.9 48.2,118.1 c 19.7,9.4 79.3,26.7 128.3,18.8 0,0 2.6,18.1 -23.8,28.6 0,0 18.4,22.2 17.1,41.9 0,0 -14.7,10.8 -40.3,10.2 0,0 10.9,21.9 3.8,37.9 0,0 -21.3,0.1 -43.1,-10.3 -10,18.3 -27.5,28.1 -27.5,28.1" /></g><g
           transform="matrix(10.287782,0,0,10.287782,-35558.914,-207397.63)"
           id="g1362"><path
             inkscape:connector-curvature="0"
             id="path1364"
             style="fill:#ec1e24;fill-opacity:1;fill-rule:nonzero;stroke:none"
             d="m 14092,15939.2 c 0,-677.4 1262.9,-582.2 1627.2,-133.7 l -281.1,494.5 c -523.8,-479.7 -1189.4,-459.9 -1346.1,-360.8" /></g><g
           transform="matrix(10.42886,0,0,10.42886,-35558.301,-207397.64)"
           id="g1366"><path
             inkscape:connector-curvature="0"
             id="path1368"
             style="fill:#548e40;fill-opacity:1;fill-rule:nonzero;stroke:none"
             d="m 15582.3,15892.6 c 261.5,176.7 302.4,274.5 302.4,274.5 -35.6,132.9 -121.4,96.8 -121.4,96.8 -46.2,-91.9 -157.4,-202.8 -235.8,-274.3 -73.3,85.7 -190.4,120.7 -298.3,89.9 16.4,-133.6 -25.4,-273.5 -114.4,-387.9 143.8,18.1 285.4,-17.6 391.8,-99.9 81.2,76.6 111.2,194.4 75.7,300.9" /></g><g
           transform="matrix(19.013441,-14.225328,14.225328,19.013441,-180403.41,184138.53)"
           id="g254"><path
             inkscape:connector-curvature="0"
             id="path256"
             style="fill:#3d3f3f;fill-opacity:1;fill-rule:nonzero;stroke:none"
             d="m 16300,1779.15 c 0,-140.52 -89.6,-254.44 -200.2,-254.44 -110.6,0 -200.2,113.92 -200.2,254.44 0,140.53 89.6,254.42 200.2,254.42 110.6,0 200.2,-113.89 200.2,-254.42 v 0" /></g><g
           transform="matrix(15.811193,0,0,15.811193,-21445.618,-283546.39)"
           id="g1518"><path
             inkscape:connector-curvature="0"
             id="path1520"
             style="fill:#bf3627;fill-opacity:1;fill-rule:nonzero;stroke:none"
             d="m 10421.8,15916.7 c 102.5,193.9 -142.4,383.3 -304.5,235.3 -178.52,-162.9 -358.36,-273.5 -683.12,-370.4 -211.06,-62.9 -173.49,-370.6 45.5,-381.4 342.46,-16.9 754.82,162.4 942.12,516.5" /></g><g
           transform="matrix(15.169878,0,0,15.169878,-8950.3383,-270272.05)"
           id="g1514"><path
             inkscape:connector-curvature="0"
             id="path1516"
             style="fill:#7e2118;fill-opacity:1;fill-rule:nonzero;stroke:none"
             d="m 9863.55,15918.5 c 102.06,192.9 -141.73,381.5 -303,234.2 -177.72,-162.1 -356.73,-272.2 -679.98,-368.7 -210.08,-62.6 -172.69,-368.9 45.29,-379.6 340.87,-16.9 751.32,161.6 937.69,514.1" /></g><g
           transform="matrix(18.877183,-14.123383,14.123383,18.877183,-180403.41,184138.53)"
           id="g250"><path
             inkscape:connector-curvature="0"
             id="path252"
             style="fill:#252626;fill-opacity:1;fill-rule:nonzero;stroke:none"
             d="m 16257.3,1634.65 h -82.7 l -40.9,-668.936 c -1.7,-28.753 11.6,-56.299 35.3,-72.783 28.2,-19.609 65.7,-19.609 94,0 23.7,16.484 37,44.03 35.3,72.783 l -41,668.936" /></g><g
           transform="matrix(34.676475,0,0,34.676475,-400751.39,-82518.359)"
           id="g258"><path
             inkscape:connector-curvature="0"
             id="path260"
             style="fill:#969797;fill-opacity:1;fill-rule:nonzero;stroke:none;stroke-width:0.68282354"
             d="m 15997.881,2000.1883 c -45.536,-60.8628 -120.132,-82.0331 -166.604,-47.2634 -46.528,34.8105 -47.273,112.3483 -1.737,173.2113 45.54,60.8683 120.136,82.0386 166.663,47.228 46.473,-34.7696 47.218,-112.3075 1.678,-173.1759 v 0" /></g></g></g></g></svg>